<?xml version="1.0" standalone="no"?>
<!DOCTYPE svg PUBLIC "-//W3C//DTD SVG 20010904//EN"
 "http://www.w3.org/TR/2001/REC-SVG-20010904/DTD/svg10.dtd">
<svg version="1.0" xmlns="http://www.w3.org/2000/svg"
 width="1685.000000pt" height="1714.000000pt" viewBox="0 0 1685.000000 1714.000000"
 preserveAspectRatio="xMidYMid meet">

<g transform="translate(0.000000,1714.000000) scale(0.100000,-0.100000)"
fill="#000000" stroke="none">
<path d="M2600 17023 c-96 -7 -339 -45 -435 -68 -582 -137 -1121 -469 -1503
-925 -346 -414 -554 -884 -639 -1445 -17 -115 -18 -379 -18 -6070 0 -5691 1
-5955 18 -6070 53 -353 137 -619 289 -918 335 -660 935 -1167 1653 -1397 136
-43 272 -74 445 -102 l145 -23 5870 0 5870 0 145 23 c181 29 355 71 507 123
1058 363 1796 1306 1893 2419 14 158 14 11732 0 11890 -98 1131 -859 2085
-1942 2435 -142 46 -277 78 -453 107 l-140 23 -5830 1 c-3206 0 -5850 -1
-5875 -3z m1425 -6992 c3 -5 1 -12 -4 -15 -5 -3 -11 1 -15 9 -6 16 9 21 19 6z
m205 -171 c13 -17 29 -30 35 -30 7 0 24 -13 38 -30 l27 -30 -24 -6 c-29 -7
-91 20 -111 50 -18 25 -20 76 -2 76 6 -1 23 -14 37 -30z m-67 -163 c32 -36 32
-35 8 -66 l-18 -24 -24 27 c-22 25 -42 90 -31 100 8 9 38 -8 65 -37z m163 -12
l17 -26 22 21 c12 11 25 20 29 20 4 0 15 -19 25 -41 11 -23 31 -53 45 -68 74
-75 96 -104 97 -129 1 -15 3 -49 4 -77 2 -41 8 -54 34 -77 17 -15 31 -32 31
-37 0 -5 9 -12 19 -16 11 -3 26 -23 34 -44 9 -21 23 -41 31 -44 8 -3 20 -23
25 -45 6 -21 20 -49 31 -62 11 -13 20 -34 20 -47 0 -30 51 -153 128 -313 18
-36 32 -70 32 -77 0 -6 6 -24 14 -40 8 -15 19 -46 26 -68 6 -22 40 -98 75
-170 34 -71 66 -143 69 -159 4 -16 16 -41 27 -54 10 -14 19 -31 19 -39 0 -8
11 -36 25 -62 29 -56 75 -157 75 -167 0 -10 80 -168 88 -174 4 -3 24 -26 45
-53 21 -26 52 -54 69 -63 17 -9 36 -31 45 -52 8 -20 21 -44 27 -52 7 -8 23
-41 36 -73 13 -32 38 -77 57 -99 18 -22 33 -48 33 -58 0 -10 11 -31 24 -47 12
-15 49 -68 81 -118 32 -49 74 -108 94 -131 20 -22 61 -71 91 -109 30 -38 73
-87 95 -110 208 -218 267 -276 294 -289 17 -9 38 -28 47 -42 10 -14 40 -37 68
-51 28 -14 70 -43 94 -63 23 -21 55 -41 70 -45 15 -3 38 -17 52 -30 28 -26
170 -98 333 -170 153 -68 153 -69 -89 -324 -45 -47 -126 -140 -181 -206 -55
-66 -125 -142 -154 -169 -30 -27 -92 -83 -137 -125 -46 -42 -105 -96 -130
-121 -57 -54 -92 -79 -157 -110 -27 -13 -62 -33 -76 -45 -14 -11 -45 -26 -70
-34 -24 -7 -62 -21 -84 -32 -70 -33 -153 -44 -325 -43 l-165 0 -144 47 c-80
26 -147 51 -151 56 -3 6 -26 18 -50 29 -25 11 -56 31 -69 46 -14 14 -31 26
-38 26 -8 0 -35 21 -59 48 -25 26 -72 75 -105 108 -32 34 -59 68 -59 76 0 13
-20 37 -105 129 -13 14 -33 46 -44 71 -11 25 -24 49 -30 52 -6 4 -11 13 -11
20 0 8 -16 40 -35 71 -19 32 -42 79 -52 104 -9 25 -25 58 -35 73 -27 39 -24
62 7 54 19 -5 25 -2 25 9 0 9 -7 18 -15 21 -9 4 -15 19 -15 41 0 19 -9 47 -20
63 -11 15 -24 40 -30 54 -7 18 -16 26 -28 24 -21 -3 -52 18 -52 36 0 6 -11 32
-25 58 -14 26 -26 62 -27 80 -3 27 1 34 18 36 18 3 22 12 27 54 4 28 9 53 11
56 12 11 34 -21 38 -56 7 -50 1 -62 -29 -62 -23 0 -25 -3 -19 -32 3 -19 22
-47 41 -66 l34 -32 12 22 c24 45 -5 517 -32 534 -5 3 -9 32 -9 64 0 69 -18
162 -33 172 -6 3 -16 4 -24 1 -9 -4 -13 4 -13 27 0 27 3 31 19 27 44 -11 49 5
49 143 0 72 -4 130 -9 130 -5 0 -9 38 -9 85 0 69 3 86 18 94 16 10 16 12 0 25
-10 7 -18 16 -18 20 0 4 -7 14 -15 22 -22 22 -19 39 9 52 l25 11 1 290 c0 186
-3 292 -10 296 -13 8 -13 185 0 185 6 0 10 28 10 65 0 36 4 65 10 65 18 0 23
50 7 68 -9 11 -17 50 -21 104 -6 81 -6 88 14 98 26 14 28 81 3 106 -15 15 -17
35 -15 153 3 118 6 139 23 157 10 11 19 35 19 52 0 25 4 32 20 32 13 0 21 9
25 28 4 15 10 35 16 44 12 23 12 55 -1 63 -5 3 -10 16 -10 28 -1 22 -21 57
-34 57 -3 0 -6 -22 -6 -49 0 -56 -20 -151 -31 -151 -14 0 -18 33 -21 162 -2
115 0 129 16 141 39 28 -10 62 -74 51 -19 -3 -31 4 -48 26 l-23 29 22 31 c28
37 34 37 55 5z m-16 -576 c0 -11 -4 -17 -10 -14 -5 3 -10 13 -10 21 0 8 5 14
10 14 6 0 10 -9 10 -21z m17 -301 c-3 -8 -6 -5 -6 6 -1 11 2 17 5 13 3 -3 4
-12 1 -19z m0 -170 c-2 -24 -4 -5 -4 42 0 47 2 66 4 43 2 -24 2 -62 0 -85z
m-543 -674 c4 -9 4 -19 2 -21 -8 -8 -26 8 -26 23 0 19 16 18 24 -2z m544 -146
c-3 -98 -5 -113 -20 -116 -16 -3 -18 8 -18 126 0 71 3 132 7 135 3 4 12 -2 20
-13 10 -14 13 -49 11 -132z m-398 -298 c0 -5 -4 -10 -10 -10 -5 0 -10 5 -10
10 0 6 5 10 10 10 6 0 10 -4 10 -10z m347 -429 c30 -1 44 -30 36 -75 -5 -31
-9 -36 -26 -30 -57 18 -103 119 -50 109 10 -2 28 -4 40 -4z m-57 -317 c0 -29
-4 -56 -10 -59 -6 -3 -10 4 -10 18 0 13 -5 38 -11 56 -14 40 -5 69 16 51 10
-8 15 -31 15 -66z m-56 -80 c11 -4 16 -19 16 -49 0 -28 7 -51 21 -69 27 -34
40 -91 32 -135 -5 -32 -7 -33 -19 -16 -8 10 -14 31 -14 45 0 15 -13 64 -30
110 -27 76 -37 120 -26 120 2 0 11 -3 20 -6z m166 -188 c0 -41 -19 -74 -33
-59 -4 3 -7 33 -7 65 0 56 1 58 20 48 15 -8 20 -21 20 -54z m-60 -193 c0 -27
-4 -43 -9 -37 -11 12 -22 70 -14 78 16 15 23 2 23 -41z m150 -399 c0 -8 -4
-12 -10 -9 -5 3 -10 13 -10 21 0 8 5 12 10 9 6 -3 10 -13 10 -21z m-1470
-1746 c209 -50 347 -229 376 -488 l7 -60 -130 0 -130 0 -7 57 c-12 104 -69
193 -150 236 -32 17 -58 22 -121 22 -95 0 -143 -21 -199 -86 -70 -82 -71 -91
-71 -584 0 -493 1 -502 71 -584 57 -66 104 -86 204 -86 60 0 94 5 115 17 79
43 138 135 152 238 l8 55 129 3 129 3 -7 -58 c-29 -254 -144 -415 -346 -484
-93 -31 -257 -32 -355 -2 -178 56 -292 181 -342 378 -16 62 -18 120 -18 520 0
396 2 458 18 518 58 227 202 362 422 396 66 11 176 5 245 -11z m6012 -759 l3
-761 28 -24 c24 -21 38 -24 103 -24 l74 0 0 -120 0 -120 -101 0 c-154 0 -229
30 -296 118 -69 91 -67 62 -71 920 l-3 772 130 0 131 0 2 -761z m668 -144 l0
-905 -130 0 -130 0 0 905 0 905 130 0 130 0 0 -905z m2400 0 l0 -905 -130 0
-130 0 0 46 0 46 -39 -31 c-76 -61 -125 -76 -241 -76 -98 1 -110 3 -172 33
-76 37 -129 91 -163 167 -46 103 -50 142 -50 470 0 331 5 378 55 476 45 86
137 162 224 183 16 4 64 7 106 7 91 0 156 -21 230 -76 l50 -37 0 301 0 301
130 0 130 0 0 -905z m-5830 585 l0 -180 110 0 110 0 0 -120 0 -120 -110 0
-110 0 0 -374 c0 -384 4 -427 40 -446 10 -6 55 -10 99 -10 l81 0 0 -125 0
-125 -72 0 c-212 1 -309 45 -367 169 l-26 56 -3 428 -3 427 -64 0 -65 0 0 120
0 120 65 0 65 0 0 180 0 180 125 0 125 0 0 -180z m-2040 -190 c131 -38 230
-137 273 -275 21 -66 22 -88 22 -370 0 -263 -2 -307 -18 -360 -65 -208 -203
-307 -432 -309 -158 -1 -248 28 -336 111 -55 51 -88 104 -115 183 -17 49 -19
88 -19 375 0 347 3 370 62 472 96 165 334 239 563 173z m1249 -3 c106 -39 192
-150 220 -285 7 -34 11 -221 11 -532 l0 -480 -125 0 -124 0 -3 468 c-3 455 -4
468 -24 507 -41 75 -97 105 -197 105 -88 0 -143 -29 -177 -95 l-25 -49 -3
-468 -3 -468 -130 0 -129 0 2 653 3 652 128 3 127 3 0 -56 0 -56 43 34 c114
93 264 117 406 64z m1939 1 c24 -11 46 -27 49 -34 4 -10 -56 -188 -73 -215 -2
-5 -23 1 -47 11 -51 24 -113 25 -192 5 -71 -19 -121 -56 -155 -116 l-25 -44
-3 -452 -3 -453 -129 0 -130 0 0 655 0 655 130 0 130 0 0 -66 0 -66 43 37 c86
74 225 120 327 107 19 -2 54 -13 78 -24z m813 1 c83 -24 174 -89 216 -155 71
-112 87 -226 80 -554 -6 -253 -12 -291 -59 -387 -89 -181 -323 -263 -567 -198
-145 38 -256 162 -290 323 -15 71 -15 584 0 654 49 231 236 358 499 340 30 -2
85 -12 121 -23z m2469 -2 c109 -39 193 -153 221 -301 5 -27 9 -262 9 -522 l0
-474 -124 0 -125 0 -3 463 c-3 418 -5 466 -21 502 -36 80 -94 114 -194 115
-119 0 -182 -50 -203 -159 -6 -31 -10 -236 -10 -487 l0 -434 -130 0 -130 0 0
655 0 655 130 0 130 0 0 -56 0 -56 35 31 c107 94 270 121 415 68z m2245 11
c160 -34 274 -154 311 -326 19 -94 19 -560 0 -654 -21 -98 -61 -172 -128 -233
-118 -109 -323 -143 -502 -83 -104 34 -183 102 -229 196 -48 96 -52 128 -52
447 0 320 4 351 52 448 88 178 302 258 548 205z m921 -33 c3 -14 3 -36 0 -50
-6 -24 -10 -25 -81 -25 -64 0 -75 -3 -76 -17 -1 -10 -4 -117 -8 -238 l-6 -220
-34 -3 c-19 -2 -44 -1 -57 2 l-24 6 0 235 0 234 -77 3 -78 3 -3 33 c-6 64 -13
62 222 62 l216 0 6 -25z m293 4 c10 -11 49 -104 87 -206 48 -131 70 -180 75
-167 94 248 143 362 160 377 27 22 140 24 158 3 8 -9 11 -94 9 -287 l-3 -274
-50 0 -50 0 -5 228 -5 228 -85 -228 -85 -228 -45 -3 c-25 -1 -50 1 -56 5 -6 5
-46 106 -90 226 l-79 219 -3 -218 c-2 -159 -6 -220 -15 -226 -20 -13 -84 -9
-96 6 -9 10 -11 88 -9 280 3 224 5 268 18 276 8 5 45 10 82 10 55 0 71 -4 87
-21z"/>
<path d="M4553 5803 c-16 -6 -1 -38 33 -69 12 -12 28 -39 34 -61 16 -54 43
-88 64 -80 27 11 20 64 -17 116 -18 25 -38 58 -45 74 -11 26 -36 34 -69 20z"/>
<path d="M11480 3434 c-46 -20 -68 -41 -94 -89 -20 -38 -21 -53 -21 -335 l0
-295 28 -48 c83 -141 318 -116 365 39 15 52 17 552 1 607 -13 47 -63 106 -106
123 -42 18 -129 17 -173 -2z"/>
<path d="M3893 3421 c-55 -26 -89 -79 -102 -161 -13 -80 -14 -402 -1 -489 18
-127 91 -187 220 -179 80 4 127 31 162 93 22 39 23 49 26 308 4 296 -3 339
-56 390 -60 58 -169 74 -249 38z"/>
<path d="M7893 3421 c-97 -44 -117 -127 -111 -455 4 -252 13 -289 84 -342 35
-27 44 -29 124 -29 76 0 91 3 123 25 21 14 47 45 60 70 21 42 22 60 25 300 4
275 -2 322 -45 379 -52 67 -172 91 -260 52z"/>
<path d="M12655 3430 c-37 -12 -79 -50 -102 -93 -16 -28 -18 -64 -18 -322 l0
-290 27 -47 c36 -60 91 -88 174 -88 71 0 133 26 161 66 44 62 48 96 48 364 l0
255 -27 55 c-38 75 -79 102 -166 106 -37 2 -80 -1 -97 -6z"/>
</g>
</svg>
